<svg width="20" height="20" viewBox="0 0 20 20" fill="none" xmlns="http://www.w3.org/2000/svg">
<path d="M15.001 13.593L11.392 9.984L15.001 6.375L13.595 4.969L9.986 8.578L6.377 4.969L4.971 6.375L8.58 9.984L4.971 13.593L6.377 14.999L9.986 11.39L13.595 14.999L15.001 13.593ZM9.985 0C12.735 0 15.0867 0.976667 17.04 2.93C18.9933 4.88333 19.97 7.235 19.97 9.985C19.97 12.735 18.9933 15.0867 17.04 17.04C15.0867 18.9933 12.735 19.97 9.985 19.97C7.235 19.97 4.88333 18.9933 2.93 17.04C0.976667 15.0867 0 12.735 0 9.985C0 7.235 0.976667 4.88333 2.93 2.93C4.88333 0.976667 7.235 0 9.985 0Z" fill="white"/>
</svg>
