<svg width="76" height="15" viewBox="0 0 76 15" fill="none" xmlns="http://www.w3.org/2000/svg">
<path d="M7.5 0L9.18386 5.18237H14.6329L10.2245 8.38525L11.9084 13.5676L7.5 10.3647L3.09161 13.5676L4.77547 8.38525L0.367076 5.18237H5.81614L7.5 0Z" fill="#FFBD8E"/>
<path d="M38 0L39.7961 5.18237H45.6085L40.9062 8.38525L42.7023 13.5676L38 10.3647L33.2977 13.5676L35.0938 8.38525L30.3915 5.18237H36.2039L38 0Z" fill="#FFBD8E"/>
<path d="M22.5 0L24.1839 5.18237H29.6329L25.2245 8.38525L26.9084 13.5676L22.5 10.3647L18.0916 13.5676L19.7755 8.38525L15.3671 5.18237H20.8161L22.5 0Z" fill="#FFBD8E"/>
<path d="M53.5 0L55.1839 5.18237H60.6329L56.2245 8.38525L57.9084 13.5676L53.5 10.3647L49.0916 13.5676L50.7755 8.38525L46.3671 5.18237H51.8161L53.5 0Z" fill="#FFBD8E"/>
<path d="M68.5 0L70.1839 5.18237H75.6329L71.2245 8.38525L72.9084 13.5676L68.5 10.3647L64.0916 13.5676L65.7755 8.38525L61.3671 5.18237H66.8161L68.5 0Z" fill="#FFBD8E"/>
</svg>
