<svg width="373" height="65" viewBox="0 0 373 65" fill="none" xmlns="http://www.w3.org/2000/svg">
<path d="M42.4703 25.0299H66.7237L47.1023 39.2857L46.8084 39.4992L46.9207 39.8447L54.4154 62.9111L34.7939 48.6553L34.5001 48.4418L34.2062 48.6553L14.5847 62.9111L22.0795 39.8447L22.1917 39.4992L21.8978 39.2857L2.27639 25.0299H26.5298H26.8931L27.0053 24.6844L34.5001 1.61804L41.9948 24.6844L42.107 25.0299H42.4703ZM118.47 25.0299H142.724L123.102 39.2857L122.808 39.4992L122.921 39.8447L130.415 62.9111L110.794 48.6553L110.5 48.4418L110.206 48.6553L90.5847 62.9111L98.0795 39.8447L98.1917 39.4992L97.8978 39.2857L78.2764 25.0299H102.53H102.893L103.005 24.6844L110.5 1.61802L117.995 24.6844L118.107 25.0299H118.47ZM186.5 1.61802L193.995 24.6844L194.107 25.0299H194.47H218.724L199.102 39.2857L198.808 39.4992L198.921 39.8447L206.415 62.9111L186.794 48.6553L186.5 48.4418L186.206 48.6553L166.585 62.9111L174.079 39.8447L174.192 39.4992L173.898 39.2857L154.276 25.0299H178.53H178.893L179.005 24.6844L186.5 1.61802ZM346.47 25.0299H370.724L351.102 39.2857L350.808 39.4992L350.921 39.8447L358.415 62.9111L338.794 48.6553L338.5 48.4418L338.206 48.6553L318.585 62.9111L326.079 39.8447L326.192 39.4992L325.898 39.2857L306.276 25.0299H330.53H330.893L331.005 24.6844L338.5 1.61802L345.995 24.6844L346.107 25.0299H346.47ZM262.5 1.61802L269.995 24.6844L270.107 25.0299H270.47H294.724L275.102 39.2857L274.808 39.4992L274.921 39.8447L282.415 62.9111L262.794 48.6553L262.5 48.4418L262.206 48.6553L242.585 62.9111L250.079 39.8447L250.192 39.4992L249.898 39.2857L230.276 25.0299H254.53H254.893L255.005 24.6844L262.5 1.61802Z" stroke="#FFBD8E"/>
</svg>
