<svg width="371" height="64" viewBox="0 0 371 64" fill="none" xmlns="http://www.w3.org/2000/svg">
<path fill-rule="evenodd" clip-rule="evenodd" d="M41.4702 24.5299L33.5 0H109.5L101.53 24.5299H75.7375L96.6039 39.6902L88.7051 64H54.2949L46.3961 39.6902L67.2625 24.5299H41.4702ZM185.5 0L177.53 24.5299H151.737L172.604 39.6902L164.705 64H130.295L122.396 39.6902L143.263 24.5299H117.47L109.5 0H185.5ZM261.5 0H185.5L193.47 24.5299H219.263L198.396 39.6902L206.295 64H240.705L248.604 39.6902L227.737 24.5299H253.53L261.5 0ZM337.5 0H261.5L269.47 24.5299H295.263L274.396 39.6902L282.295 64H316.705L324.604 39.6902L303.737 24.5299H329.53L337.5 0ZM337.5 0H371V24.5299H345.47L337.5 0ZM282.063 64L261.5 49.0598L240.937 64H282.063ZM350.396 39.6902L371 24.7206V64H358.295L350.396 39.6902ZM337.5 49.0598L358.063 64H316.937L337.5 49.0598ZM0 0H33.5L25.5298 24.5299H0V0ZM206.063 64L185.5 49.0598L164.937 64H206.063ZM109.5 49.0598L130.063 64H88.9366L109.5 49.0598ZM54.0634 64L33.5 49.0598L12.9366 64H54.0634ZM12.7051 64L20.6039 39.6902L0 24.7206V64H12.7051Z" fill="white"/>
</svg>
